<svg xmlns="http://www.w3.org/2000/svg" viewBox="0 0 32 32" fill="none">
  <path d="M16 32C24.8366 32 32 24.8366 32 16C32 7.16344 24.8366 0 16 0C7.16344 0 0 7.16344 0 16C0 24.8366 7.16344 32 16 32Z" fill="#F7931A"/>
  <path d="M22.5 14.255C22.867 12.1583 21.2337 11.005 19.0587 10.2483L19.8087 7.24833L17.9337 6.81667L17.2087 9.73333C16.7587 9.62167 16.2921 9.51833 15.8337 9.415L16.5671 6.475L14.6921 6.04333L13.9421 9.04333C13.5671 8.95833 13.2004 8.875 12.8504 8.78667V8.77833L10.2671 8.18333L9.80874 10.1833C9.80874 10.1833 11.2004 10.4917 11.1754 10.5083C11.9504 10.7 12.0921 11.2167 12.0671 11.6333L11.2171 14.9917L11.4754 15.0583H11.2087L10.0504 19.6333C9.95874 19.8833 9.70874 20.2583 9.17541 20.1333C9.19207 20.1583 7.80874 19.8 7.80874 19.8L6.94207 21.9333L9.38374 22.4917C9.79207 22.5917 10.1921 22.7 10.5837 22.8L9.82541 25.8333L11.7004 26.265L12.4504 23.265C12.9171 23.3933 13.3754 23.5083 13.8171 23.6167L13.0754 26.5917L14.9504 27.0233L15.7087 24C18.6671 24.5917 20.8921 24.3583 21.8087 21.6917C22.5504 19.5333 21.7921 18.3167 20.2504 17.5333C21.3671 17.2833 22.2254 16.5333 22.5004 14.255H22.5ZM18.4754 20.3333C17.9504 22.4917 14.3171 21.2833 13.1254 20.9833L14.1254 17.0667C15.3171 17.3667 19.0254 18.0833 18.4754 20.3333ZM19.0004 14.2167C18.5171 16.1917 15.5087 15.1417 14.5171 14.8917L15.4254 11.3167C16.4171 11.5667 19.5004 12.1583 19.0004 14.2167Z" fill="white"/>
</svg> 